<svg width="440" height="44" viewBox="0 0 464 59" fill="none" xmlns="http://www.w3.org/2000/svg">
<path d="M45.16 3.66C45.28 3.82 45.34 4.02 45.34 4.26H47.44V4.32C47.44 4.52 47.4 4.7 47.32 4.86L47.14 5.16H44.92L44.32 6.36H44.8L44.5 6.96H45.46L45.28 7.26H43.36L42.94 8.16H43.3L43.12 8.46H42.4L42.1 9.06H46.12L45.52 10.26H41.98L41.86 10.56H41.08L40.6 11.46H42.28L41.68 12.66H42.94L42.76 12.96H42.34L42.16 13.26H41.8L41.2 14.46H41.26L40.96 15.06H41.86L41.68 15.36H41.08L40.9 15.66H42.22L41.92 16.26H44.14L43.84 16.86H38.32L38.02 17.46H41.8L41.32 18.36H40.54L40.12 19.26H38.62L38.5 19.56H38.86L38.56 20.16H38.2L38.08 20.46H39.34L39.04 21.06H39.64L39.22 21.96H38.08L37.96 22.26H37.66L37.06 23.46H36.88L36.7 23.76H38.2L37.9 24.36H38.86L38.44 25.26H34.84L34.54 25.86H36.58L36.1 26.76H35.26L35.08 27.06L34.6 27.96H35.8L35.62 28.26H37.84L37.72 28.56L37.42 29.16H32.56L32.26 29.76H38.38L37.78 30.96H34.48L34.18 31.56V32.16H32.5V32.76H32.8V33.96H34.36V35.16H27.52V36.36H34.54V37.26H32.14V38.16H32.8V38.46H33.64V39.66H34.12V39.96H32.56V40.56H33.7V41.76H29.38V42.96H28.42V43.56H32.62C32.62 44.08 32.38 44.48 31.9 44.76H31.18C30.98 44.92 30.7 45 30.34 45H18.58C18.22 45 17.94 44.92 17.74 44.76H18.4C18 44.48 17.76 44.08 17.68 43.56H13.42V42.96H14.38V41.76H18.7V40.56H17.56V39.96H19.12V39.66H18.64V38.46H17.8V38.16H17.14V37.26H19.54V36.36H12.52V35.16H19.36V33.96H17.8V32.76H17.5V32.16H19.18V31.56L18.88 30.96H22.18L21.58 29.76H15.46L15.16 29.16H19.96L19.66 28.56L19.54 28.26H17.32L17.14 27.96H15.94L15.52 27.06H15.58L15.4 26.76H16.24L15.82 25.86H13.78L13.48 25.26H17.08L16.6 24.36H15.64L15.34 23.76H13.84L13.66 23.46H13.9L13.3 22.26H13.54L13.42 21.96H14.5L14.02 21.06H13.42L13.12 20.46H11.86L11.68 20.16H12.04L11.74 19.56H11.38L11.2 19.26H12.7L12.22 18.36H13L12.52 17.46H8.74L8.44 16.86H13.96L13.66 16.26H8.14L7.84 15.66H9.04L8.92 15.36H11.68L11.56 15.06H11.86L11.56 14.46H9.46L8.86 13.26H9.16L8.98 12.96H8.5L8.32 12.66H8.26L7.66 11.46H6.28L5.8 10.56H6.52L6.4 10.26H1.24L0.64 9.06H2.02L1.72 8.46H5.38L5.26 8.16H6.76L6.28 7.26H3.82L3.7 6.96H7L6.7 6.36H3.16L2.5 5.16H4.48L4.3 4.86C4.22 4.7 4.18 4.52 4.18 4.32V4.26H5.8C5.8 4.14 5.82 4.04 5.86 3.96C5.9 3.84 5.94 3.74 5.98 3.66H7.06C7.3 3.22 7.68 3 8.2 3H19.48C19.92 3 20.28 3.06 20.56 3.18C20.88 3.3 21.14 3.46 21.34 3.66H20.26C20.38 3.74 20.48 3.84 20.56 3.96C20.68 4.08 20.76 4.18 20.8 4.26H19.18C19.26 4.42 19.3 4.5 19.3 4.5L19.6 5.16H17.68L18.28 6.36H21.88L22.18 6.96H18.82L19 7.26H21.46L21.88 8.16H20.38L20.56 8.46H16.9L17.2 9.06H15.76L16.36 10.26H21.52L21.7 10.56H20.92L21.4 11.46H22.78L23.38 12.66H23.44L23.62 12.96H24.1L24.22 13.26H23.92L24.52 14.46H26.08L26.68 13.26H27.04L27.22 12.96H27.7L27.82 12.66H26.56L27.16 11.46H25.48L25.9 10.56H26.74L26.86 10.26H30.4L31 9.06H26.92L27.22 8.46H28L28.12 8.16H27.76L28.18 7.26H30.1L30.28 6.96H29.32L29.62 6.36H29.14L29.74 5.16H31.96L32.32 4.5C32.32 4.5 32.36 4.42 32.44 4.26H30.34C30.42 4.18 30.5 4.08 30.58 3.96C30.66 3.84 30.76 3.74 30.88 3.66H33.94C34.14 3.46 34.4 3.3 34.72 3.18C35.04 3.06 35.4 3 35.8 3H47.08C47.6 3 47.98 3.22 48.22 3.66H45.16ZM26.86 16.26L27.16 15.66H25.84L25.96 15.36H23.98L24.16 15.66H22.9L23.2 16.26H26.86ZM80.8848 20.16H79.8648V21.06H80.1048V21.96H81.4248V22.56H80.7048V23.76H80.5248V24.06H80.7648V25.26H79.8048V25.86H77.8848V26.46H79.3248V27.36H80.2848V27.96H80.5848V29.16H80.7648V30.96H80.7048V31.86H80.5848V33.06H82.4448V33.96H79.5648V35.46H80.8248V35.76H81.3048V36.06H79.8048V36.96H79.3848V38.16H80.8248V39.36H80.4048V40.26H80.8248V40.86H80.7048V42.06H80.6448V43.26H80.7648V43.56H80.7048C80.6248 43.96 80.4848 44.26 80.2848 44.46H81.3048C81.0648 44.82 80.6648 45 80.1048 45H69.6048C69.1248 45 68.7248 44.82 68.4048 44.46H67.3848C67.1848 44.26 67.0448 43.96 66.9648 43.56H67.0248V43.26H66.9048V42.06H66.9648V41.4C66.8448 41.64 66.6848 41.86 66.4848 42.06H66.6048C66.2048 42.54 65.7848 42.94 65.3448 43.26H65.2248C65.1848 43.3 65.1248 43.34 65.0448 43.38C64.9648 43.42 64.8848 43.48 64.8048 43.56H64.6848C64.1648 43.92 63.6248 44.22 63.0648 44.46H64.0848C63.1248 44.9 62.0848 45.2 60.9648 45.36H60.1848C59.7048 45.44 59.2048 45.5 58.6848 45.54C58.2048 45.58 57.6848 45.6 57.1248 45.6C56.7248 45.6 56.3248 45.58 55.9248 45.54C55.5248 45.5 55.1048 45.44 54.6648 45.36H55.4448C54.4848 45.16 53.5848 44.86 52.7448 44.46H51.7248C51.1248 44.18 50.6048 43.88 50.1648 43.56H50.3448C50.3048 43.48 50.2448 43.42 50.1648 43.38C50.0848 43.34 50.0048 43.3 49.9248 43.26H50.0448C49.8448 43.06 49.6248 42.86 49.3848 42.66C49.1848 42.46 48.9848 42.26 48.7848 42.06H48.6648C48.5048 41.86 48.3448 41.66 48.1848 41.46C48.0248 41.26 47.8648 41.06 47.7048 40.86H47.8248C47.7848 40.78 47.7248 40.68 47.6448 40.56C47.5648 40.44 47.4848 40.34 47.4048 40.26H46.9848C46.9448 40.1 46.8648 39.96 46.7448 39.84C46.6648 39.68 46.5848 39.52 46.5048 39.36H46.9848C46.7848 38.92 46.6248 38.52 46.5048 38.16H45.0648C45.0248 37.96 44.9648 37.76 44.8848 37.56C44.8048 37.36 44.7448 37.16 44.7048 36.96H45.0648L44.8848 36.06H46.3848C46.3448 35.98 46.3248 35.88 46.3248 35.76H45.7848C45.7848 35.64 45.7648 35.54 45.7248 35.46H44.5248C44.4848 35.38 44.4648 35.28 44.4648 35.16C44.4648 35.04 44.4448 34.94 44.4048 34.86H47.5848C47.5448 34.7 47.5248 34.56 47.5248 34.44C47.5248 34.28 47.5048 34.12 47.4648 33.96H46.7448C46.7048 33.8 46.6848 33.66 46.6848 33.54C46.6848 33.38 46.6848 33.22 46.6848 33.06H45.6648V31.86H45.3048V30.96H45.1248V30.36H45.2448V27.96H45.0048V27.36H44.4648V26.46H45.1248V25.86H45.5448V25.26H45.6048V24.06H45.3648V23.76H45.5448V22.56H46.6848V21.96H45.6048V21.06H45.2448V20.16H45.0648V18.96H46.5648V18.36H47.6448V17.76H47.0448V17.16H45.7248V16.86H45.3648V16.26H45.3048V15.42C45.3048 15.34 45.3048 15.28 45.3048 15.24C45.3448 15.16 45.3648 15.1 45.3648 15.06H45.3048C45.4648 14.22 45.9848 13.8 46.8648 13.8H58.3248C59.2448 13.8 59.7648 14.22 59.8848 15.06H60.0048V16.26H60.0648V16.86H60.4248V17.16H61.7448V17.76H62.3448V18.36H61.2648V18.96H59.7648V20.16H59.9448V21.06H60.3048V21.96H61.3848V22.56H60.2448V23.76H60.0648V24.06H60.3048V25.26H60.2448V25.86H59.8248V26.46H59.1648V27.36H59.7048V27.96H59.9448V30.36H59.8248V30.96H60.0048V31.56C60.0048 31.68 60.0248 31.78 60.0648 31.86H60.3648C60.3648 32.3 60.4248 32.7 60.5448 33.06H61.5648C61.6848 33.38 61.8448 33.68 62.0448 33.96H62.8248C63.0248 34.2 63.2648 34.38 63.5448 34.5C63.8248 34.38 64.0448 34.2 64.2048 33.96H67.0848C67.2848 33.68 67.4448 33.38 67.5648 33.06H65.7648C65.8848 32.7 65.9448 32.3 65.9448 31.86H66.0648V30.96H66.1248V29.16H65.9448V27.96H65.6448V27.36H64.6848V26.46H63.2448V25.86H65.1648V25.26H66.1248V24.06H65.8848V23.76H66.0648V22.56H66.7848V21.96H65.4648V21.06H65.2248V20.16H66.2448V18.96H67.5048V18.36H69.0648V17.76H67.0848V17.16H66.0648V16.86H65.8248V16.26H66.0648V15.42C66.0648 15.26 66.0848 15.14 66.1248 15.06H65.7048C65.9048 14.22 66.4448 13.8 67.3248 13.8H78.7248C79.5648 13.8 80.0848 14.22 80.2848 15.06H80.6448C80.6848 15.14 80.7048 15.26 80.7048 15.42V16.26H80.4648V16.86H80.7048V17.16H81.7248V17.76H83.7048V18.36H82.1448V18.96H80.8848V20.16ZM138.475 30.96H137.335V31.26H138.175V31.86H135.955V32.16H137.695V33.06H136.915V33.96H137.395V34.26H137.035V34.86H137.275V35.76H137.395V36.36H137.215V36.96H137.155V38.16H137.455V39.36H136.735V40.56H136.495V41.16H137.395V42.36H136.195V43.56H137.275L137.095 44.16H138.115C137.955 44.44 137.775 44.64 137.575 44.76H137.395C137.195 44.92 136.915 45 136.555 45H125.995C125.635 45 125.355 44.92 125.155 44.76H125.275C125.075 44.64 124.895 44.44 124.735 44.16H123.655L123.475 43.56H122.395V42.36H123.595V41.16H122.695V40.56H122.935V39.36H123.655V38.16H123.355V36.96H123.415V36.36H123.595V35.76H123.475V34.86H123.235V34.26H123.595V33.96H123.115V33.06H123.895V32.16H122.155V31.86H117.955V32.16H118.735V33.06H118.615V33.96H119.155V34.26H118.855V34.86H118.735V35.76H118.675V36.36H118.735V36.96H118.975V38.16H116.455V39.36H119.755V40.56H118.795V41.16H118.735V42.36H118.375V43.56H118.735C118.735 43.68 118.715 43.8 118.675 43.92C118.635 44 118.595 44.08 118.555 44.16H119.875C119.795 44.28 119.695 44.4 119.575 44.52C119.495 44.6 119.395 44.68 119.275 44.76H115.795C115.595 44.92 115.315 45 114.955 45H104.395C104.035 45 103.755 44.92 103.555 44.76H107.035C106.755 44.64 106.555 44.44 106.435 44.16H105.115L104.935 43.56H104.575V42.36H104.935V41.16H104.995V40.56H105.955V39.36H102.655V38.16H105.175V36.96H104.935V36.36H104.875V35.76H104.935V34.86H105.055V34.26H105.355V33.96H104.815V33.06H104.935V32.16H104.155V31.86H108.655V31.26H105.955V30.96H106.435V29.76H104.935V28.56H105.055V28.26H104.635V27.36H105.355V27.06H104.995V26.88C104.995 26.68 104.975 26.5 104.935 26.34C104.935 26.18 104.915 26.02 104.875 25.86H105.235C105.235 25.62 105.175 25.42 105.055 25.26H104.575C104.415 24.9 104.175 24.6 103.855 24.36H104.155C103.835 24.08 103.375 23.94 102.775 23.94C102.215 23.94 101.735 24.08 101.335 24.36C101.055 24.6 100.815 24.9 100.615 25.26H100.435L100.255 25.86H100.615C100.575 26.02 100.555 26.18 100.555 26.34C100.555 26.5 100.555 26.68 100.555 26.88V27.06H99.7145V27.36H100.255V28.26H100.135V28.56H99.8945V29.76H98.9945V30.96H98.8145V31.26H102.175V31.86H101.275V32.16H100.135V33.06H100.015V33.96H100.435V34.26H100.315V34.86H100.195V35.46H99.9545V35.76H99.7745V36.36H100.255V38.16H98.0945V39.36H100.315V40.56H100.075V41.16H100.495V42.36H100.315V43.38C100.315 43.42 100.295 43.46 100.255 43.5C100.255 43.5 100.255 43.52 100.255 43.56H100.555L100.375 44.16H99.0545C98.9345 44.44 98.7345 44.64 98.4545 44.76H102.775C102.575 44.92 102.295 45 101.935 45H91.1345C90.7745 45 90.4945 44.92 90.2945 44.76H85.9745C85.7745 44.64 85.5945 44.44 85.4345 44.16H86.6945C86.6545 44.08 86.6145 44 86.5745 43.92C86.5345 43.8 86.5145 43.68 86.5145 43.56H86.2745V42.36H86.4545V41.16H86.0345V40.56H86.2745V39.36H84.0545V38.16H86.2145V36.36H85.7345V35.76H85.9145V35.46H86.1545V34.86H86.2745V34.26H86.3945V33.96H85.9745V33.06H86.0945V32.16H87.2345V31.86H88.1345V31.26H84.7745V30.96H84.9545V29.76H85.8545V28.56H86.0945V28.26H86.2145V27.36H85.6745V27.06H86.5145V25.86H86.0945V25.26H86.2745V24.36H86.3345V23.76H85.9745V23.46H86.2145V22.56H85.6745V21.66H86.0945V20.76H86.0345V19.56H86.1545V19.26H85.6745V18.66H86.3945V17.46H85.7345V17.16H85.3745V16.86H82.9145V15.96H78.4745V15.66H83.6945V15.42C83.6945 15.06 83.7945 14.74 83.9945 14.46H87.3545C87.4345 14.34 87.5345 14.24 87.6545 14.16H85.0145C85.2545 13.92 85.5945 13.8 86.0345 13.8H95.9345C96.3345 13.8 96.6745 13.92 96.9545 14.16H99.5945C99.6745 14.2 99.7345 14.24 99.7745 14.28C99.8145 14.32 99.8545 14.38 99.8945 14.46H96.5345C96.7345 14.74 96.8345 15.06 96.8345 15.42V15.66H91.6145V15.96H96.0545V16.86H98.5145V17.16H98.8745V17.4L99.0545 17.16H98.9945C99.0345 17.08 99.1145 16.98 99.2345 16.86H101.575C101.815 16.54 102.115 16.24 102.475 15.96H103.975L104.335 15.66H100.435C100.715 15.46 100.995 15.26 101.275 15.06C101.595 14.82 101.935 14.62 102.295 14.46H102.895C102.975 14.38 103.055 14.32 103.135 14.28C103.255 14.24 103.375 14.2 103.495 14.16H106.195C106.795 13.88 107.435 13.66 108.115 13.5C108.795 13.34 109.515 13.24 110.275 13.2C112.595 13.12 114.475 13.44 115.915 14.16H113.215C113.295 14.2 113.395 14.24 113.515 14.28C113.635 14.32 113.735 14.38 113.815 14.46H113.215C113.815 14.82 114.335 15.22 114.775 15.66H121.135C121.455 15.42 121.755 15.2 122.035 15C122.355 14.8 122.675 14.62 122.995 14.46H120.355L121.015 14.16H122.035C122.715 13.84 123.415 13.6 124.135 13.44C124.855 13.28 125.595 13.2 126.355 13.2C128.115 13.2 129.695 13.52 131.095 14.16H130.075L130.735 14.46H133.375C133.695 14.62 133.975 14.8 134.215 15C134.495 15.2 134.775 15.42 135.055 15.66H127.375C127.455 15.7 127.515 15.74 127.555 15.78C127.595 15.82 127.635 15.88 127.675 15.96H137.215L137.995 16.86H128.335C128.375 16.94 128.455 17.04 128.575 17.16H134.695C134.815 17.28 134.895 17.38 134.935 17.46H135.235C135.355 17.62 135.475 17.82 135.595 18.06C135.715 18.26 135.835 18.46 135.955 18.66H135.235C135.315 18.74 135.375 18.84 135.415 18.96C135.455 19.08 135.495 19.18 135.535 19.26H135.955C136.035 19.42 136.075 19.52 136.075 19.56H136.015C136.095 19.72 136.175 19.92 136.255 20.16C136.335 20.36 136.395 20.56 136.435 20.76H136.495C136.535 20.92 136.575 21.08 136.615 21.24C136.655 21.36 136.695 21.5 136.735 21.66H136.315L136.495 22.56H137.035C137.075 22.72 137.095 22.88 137.095 23.04C137.095 23.16 137.115 23.3 137.155 23.46H136.975V23.76H137.335L137.395 24.36H137.515C137.555 24.52 137.575 24.68 137.575 24.84C137.575 24.96 137.575 25.1 137.575 25.26H137.395V25.86H136.915V27.06H138.295V27.36H137.395V28.26H137.275V29.76H138.475V30.96ZM117.535 15.96C117.655 16.12 117.775 16.28 117.895 16.44C118.015 16.56 118.115 16.7 118.195 16.86H121.615C121.775 16.7 121.935 16.56 122.095 16.44C122.255 16.28 122.415 16.12 122.575 15.96H117.535ZM116.155 17.16L116.335 17.46H117.055L117.355 18.12C117.435 18 117.515 17.9 117.595 17.82C117.675 17.7 117.755 17.58 117.835 17.46H117.535L117.835 17.16H116.155ZM124.375 31.26H123.535V30.96H124.675V29.76H123.475V28.26H123.595V27.36H124.495V27.06H123.115V26.88C123.115 26.68 123.115 26.5 123.115 26.34C123.115 26.18 123.095 26.02 123.055 25.86H123.535L123.355 25.26H123.535C123.375 24.9 123.135 24.6 122.815 24.36H122.695C122.375 24.08 121.915 23.94 121.315 23.94C120.755 23.94 120.275 24.08 119.875 24.36H119.575C119.335 24.56 119.115 24.86 118.915 25.26H119.455C119.335 25.42 119.275 25.62 119.275 25.86H118.855C118.815 26.02 118.795 26.18 118.795 26.34C118.795 26.5 118.795 26.68 118.795 26.88V27.06H119.155V27.36H118.435V28.26H118.855V28.56H118.735V29.76H120.235V30.96H119.755V31.26H122.455V31.86H124.375V31.26ZM172.943 28.56V29.16H180.563V29.76H175.943V30.36H173.783V30.96H175.643V31.32C175.643 31.56 175.623 31.74 175.583 31.86H176.423C176.143 32.58 175.623 32.94 174.863 32.94H156.983V33.06H159.383V33.24C159.383 33.4 159.383 33.58 159.383 33.78C159.383 33.94 159.403 34.1 159.443 34.26H156.203C156.203 34.38 156.203 34.5 156.203 34.62C156.243 34.7 156.263 34.78 156.263 34.86H155.903C155.903 35.02 155.943 35.22 156.023 35.46H156.263C156.463 36.02 156.783 36.42 157.223 36.66H155.603C155.883 36.82 156.263 36.9 156.743 36.9C157.063 36.9 157.323 36.82 157.523 36.66H160.343C160.503 36.58 160.643 36.46 160.763 36.3C160.923 36.14 161.103 35.98 161.303 35.82L161.663 35.46H160.523C160.883 35.14 161.423 34.98 162.143 34.98H173.483C173.963 34.98 174.323 35.14 174.563 35.46H175.643C175.843 35.74 175.943 36.02 175.943 36.3C175.903 36.38 175.883 36.5 175.883 36.66H173.063C172.983 37.06 172.863 37.46 172.703 37.86H169.763C169.643 38.06 169.543 38.26 169.463 38.46H176.903C176.823 38.66 176.703 38.86 176.543 39.06C176.423 39.26 176.283 39.46 176.123 39.66H174.323C174.163 39.9 174.003 40.1 173.843 40.26H174.263C174.223 40.3 174.183 40.34 174.143 40.38C174.103 40.42 174.063 40.48 174.023 40.56H170.663L170.363 40.86H171.383C171.343 40.9 171.283 40.94 171.203 40.98C171.163 41.02 171.123 41.08 171.083 41.16H172.943C172.663 41.44 172.303 41.74 171.863 42.06H170.963C170.923 42.1 170.863 42.14 170.783 42.18C170.703 42.22 170.623 42.28 170.543 42.36H169.883C169.243 42.8 168.543 43.2 167.783 43.56H167.003C166.523 43.8 166.003 44.02 165.443 44.22C164.923 44.42 164.363 44.6 163.763 44.76H162.803C162.363 44.88 161.903 44.98 161.423 45.06C160.943 45.18 160.423 45.28 159.863 45.36H162.383C161.823 45.44 161.243 45.5 160.643 45.54C160.043 45.58 159.403 45.6 158.723 45.6C158.083 45.6 157.443 45.58 156.803 45.54C156.163 45.5 155.543 45.44 154.943 45.36H152.423C151.903 45.28 151.403 45.18 150.923 45.06C150.443 44.98 149.963 44.88 149.483 44.76H150.443C149.363 44.48 148.343 44.08 147.383 43.56H148.163C147.443 43.16 146.823 42.76 146.303 42.36H146.963C146.883 42.28 146.803 42.22 146.723 42.18C146.683 42.14 146.623 42.1 146.543 42.06H147.443C147.283 41.9 147.123 41.76 146.963 41.64C146.803 41.48 146.643 41.32 146.483 41.16H144.563L144.263 40.86H143.243C143.203 40.78 143.163 40.72 143.123 40.68C143.083 40.64 143.043 40.6 143.003 40.56H146.303C146.263 40.48 146.183 40.38 146.063 40.26H145.643C145.563 40.18 145.483 40.08 145.403 39.96C145.323 39.84 145.243 39.74 145.163 39.66H146.963C146.843 39.46 146.723 39.26 146.603 39.06C146.483 38.86 146.363 38.66 146.243 38.46H138.743C138.623 38.26 138.523 38.06 138.443 37.86H141.383L140.843 36.66H142.463C142.383 36.46 142.303 36.26 142.223 36.06C142.183 35.86 142.123 35.66 142.043 35.46H141.863L141.683 34.86H142.103L141.923 34.26H145.163C145.123 34.06 145.083 33.86 145.043 33.66C145.003 33.46 144.963 33.26 144.923 33.06H142.523L142.403 31.86H141.563C141.563 31.7 141.543 31.56 141.503 31.44C141.503 31.28 141.503 31.12 141.503 30.96H139.643V30.36H141.743V29.76H146.363V29.16H138.743V29.04C138.743 28.84 138.763 28.68 138.803 28.56H149.183C149.183 28.4 149.183 28.26 149.183 28.14C149.223 27.98 149.243 27.82 149.243 27.66H139.703C139.703 27.58 139.703 27.52 139.703 27.48C139.743 27.44 139.763 27.4 139.763 27.36H143.723C143.723 27.24 143.743 27.14 143.783 27.06H148.223V26.76H139.763C139.803 26.56 139.843 26.36 139.883 26.16C139.923 25.96 139.963 25.76 140.003 25.56H142.283C142.283 25.4 142.323 25.2 142.403 24.96H140.423C140.423 24.88 140.423 24.82 140.423 24.78C140.463 24.74 140.483 24.7 140.483 24.66H141.923C141.923 24.58 141.923 24.52 141.923 24.48C141.963 24.44 141.983 24.4 141.983 24.36H140.483L140.603 24.06H142.043L142.223 23.46H143.363L143.723 22.56H142.643C142.723 22.36 142.803 22.16 142.883 21.96C142.963 21.72 143.063 21.52 143.183 21.36H143.003L143.123 21.06H141.623C141.703 20.9 141.743 20.8 141.743 20.76H140.363L140.723 20.16H143.663C143.703 20.08 143.783 19.98 143.903 19.86H144.983C145.143 19.66 145.283 19.46 145.403 19.26C145.563 19.02 145.723 18.82 145.883 18.66H144.803C144.923 18.5 145.043 18.36 145.163 18.24C145.323 18.08 145.483 17.92 145.643 17.76H147.983L148.583 17.16H145.043C145.563 16.72 146.083 16.32 146.603 15.96H149.903L150.383 15.66H149.303C149.623 15.46 150.003 15.26 150.443 15.06H152.783C153.863 14.54 154.983 14.14 156.143 13.86H152.783C153.663 13.66 154.583 13.5 155.543 13.38C156.503 13.26 157.503 13.2 158.543 13.2C159.583 13.2 160.563 13.26 161.483 13.38C162.403 13.5 163.283 13.66 164.123 13.86H167.423C168.023 14.02 168.583 14.2 169.103 14.4C169.663 14.6 170.203 14.82 170.723 15.06H168.383C168.583 15.14 168.763 15.24 168.923 15.36C169.123 15.44 169.303 15.54 169.463 15.66H170.543C170.623 15.7 170.703 15.74 170.783 15.78C170.863 15.82 170.943 15.88 171.023 15.96H167.723C168.243 16.32 168.763 16.72 169.283 17.16H172.883L173.483 17.76H171.143C171.303 17.92 171.443 18.08 171.563 18.24C171.723 18.36 171.863 18.5 171.983 18.66H173.063C173.223 18.82 173.363 19.02 173.483 19.26C173.643 19.46 173.803 19.66 173.963 19.86H172.823C172.863 19.94 172.943 20.04 173.063 20.16H170.063L170.423 20.76H171.803L171.983 21.06H173.543C173.543 21.1 173.583 21.2 173.663 21.36H173.843L174.383 22.56L174.743 23.46H174.803L174.983 24.06H174.263L174.383 24.36H174.923L175.043 24.66H176.003C176.003 24.7 176.003 24.74 176.003 24.78C176.043 24.82 176.063 24.88 176.063 24.96H175.583L175.763 25.56H173.483L173.663 26.76H182.123V27.06H177.683C177.683 27.1 177.683 27.14 177.683 27.18C177.723 27.22 177.743 27.28 177.743 27.36H173.723C173.763 27.44 173.783 27.54 173.783 27.66H183.323C183.323 27.82 183.323 27.98 183.323 28.14C183.323 28.26 183.343 28.4 183.383 28.56H172.943ZM154.703 24.66V24.96H156.623V25.44H161.423V24.96H161.843V24.66H160.883V24.36H160.283C160.283 24.24 160.263 24.14 160.223 24.06H160.943C160.943 23.9 160.903 23.7 160.823 23.46H160.763C160.723 23.1 160.603 22.8 160.403 22.56C160.003 21.92 159.383 21.6 158.543 21.6C157.743 21.6 157.143 21.92 156.743 22.56H157.823C157.663 22.8 157.543 23.1 157.463 23.46H156.263C156.263 23.54 156.243 23.64 156.203 23.76C156.203 23.84 156.183 23.94 156.143 24.06H154.703C154.703 24.18 154.683 24.28 154.643 24.36H156.143V24.66H154.703ZM199.886 21.66H194.966V21.96H195.326V23.16H196.886V23.76H192.866V24.66H193.826V24.96H193.886V25.86H194.186V26.16H193.526V26.46H194.246V26.76H193.766V27.36H193.406V28.26H193.706V28.56H193.946V28.86H192.326V29.46H191.666V29.76H191.126V30.66H192.506V30.96H191.486V31.56H194.546V32.76H191.726V33.96H194.246V35.16H193.826V35.46H194.426V36.66H192.326V37.26H196.406V38.46H192.866V38.76H194.486V39.66H193.706V40.86H193.466V42.06H193.766V42.96H193.106V43.38C193.106 43.58 193.086 43.74 193.046 43.86H194.666C194.506 44.3 194.266 44.6 193.946 44.76H191.966C191.766 44.92 191.486 45 191.126 45H180.386C180.026 45 179.746 44.92 179.546 44.76H181.526C181.206 44.6 180.966 44.3 180.806 43.86H179.186C179.146 43.74 179.126 43.58 179.126 43.38V42.96H179.786V42.06H179.486V40.86H179.726V39.66H180.506V38.76H178.886V38.46H182.426V37.26H178.346V36.66H180.446V35.46H179.846V35.16H180.266V33.96H177.746V32.76H180.566V31.56H177.506V30.96H178.526V30.66H177.146V29.76H177.686V29.46H178.346V28.86H179.966V28.56H179.726V28.26H179.426V27.36H179.786V26.76H180.266V26.46H179.546V26.16H180.206V25.86H179.906V24.96H179.846V24.66H178.886V23.76H182.906V23.16H181.346V21.96H180.986V21.66H185.906V21.36H180.686V20.46H183.746V19.56H181.286V19.26H178.886V18.06H180.566V17.76H179.786V17.46H178.946V16.56H179.246V16.26H180.206V15.06H179.786V14.46H180.626V12.36H183.146V12.06H181.466V11.16H179.186V10.86H179.066V10.26H179.606V9.66H179.726V9.36H179.786V8.46H179.666V8.16H179.786V7.86H179.966V6.96H179.546V6.06H179.966V5.76H179.846V4.56H179.786V4.26H179.726V4.02C179.726 3.82 179.766 3.6 179.846 3.36H179.906C180.186 2.72 180.686 2.4 181.406 2.4H192.146C192.786 2.4 193.286 2.72 193.646 3.36H193.586C193.666 3.6 193.706 3.82 193.706 4.02V4.26H193.766V4.56H193.826V5.76H193.946V6.06H193.526V6.96H193.946V7.86H193.766V8.16H193.646V8.46H193.766V9.36H193.706V9.66H193.586V10.26H193.046V10.86H193.166V11.16H195.446V12.06H197.126V12.36H194.606V14.46H193.766V15.06H194.186V16.26H193.226V16.56H192.926V17.46H193.766V17.76H194.546V18.06H192.866V19.26H195.266V19.56H197.726V20.46H194.666V21.36H199.886V21.66ZM202.103 8.76V7.56H202.043V6.66H202.583V6.36H202.943V5.16H202.643V4.26H202.703V3.06H202.943V2.16H202.823V1.62C202.823 1.3 202.863 1.08 202.943 0.959998H203.543L203.723 0.659999H203.243C203.563 0.219997 204.003 -3.57628e-06 204.563 -3.57628e-06H214.703C215.263 -3.57628e-06 215.703 0.219997 216.023 0.659999H216.503L216.683 0.959998H216.023C216.143 1.12 216.203 1.34 216.203 1.62V2.16H216.323V3.06H216.083V4.26H216.023V5.16H216.323V6.36H215.963V6.66H215.423V7.56H215.483V8.76H215.903V8.88C215.903 9.24 215.763 9.6 215.483 9.96H214.763C214.483 10.32 214.083 10.5 213.563 10.5H203.423C202.903 10.5 202.483 10.32 202.163 9.96H202.883C202.643 9.64 202.523 9.28 202.523 8.88V8.76H202.103ZM214.463 21.36H220.103V22.56H218.063V23.16H215.783V24.36H217.523V24.66H216.383V25.26H216.563V25.86H216.863V26.76H213.863V27.66H215.843V28.56H215.483V29.16H216.503V30.06H216.743V30.96H216.383V31.86H216.683V32.46H216.383V33.66H216.263V34.56H216.023V35.46H216.263V36.06H216.383V37.26H216.143V37.86H216.443V38.46H216.383V39.36H216.623V40.26H216.803V40.56H216.383V41.76H215.543V42.96H216.143V43.38C216.143 43.58 216.123 43.74 216.083 43.86H215.663C215.543 44.26 215.323 44.56 215.003 44.76H216.203C216.003 44.92 215.703 45 215.303 45H204.563C204.203 45 203.923 44.92 203.723 44.76H202.523C202.163 44.56 201.923 44.26 201.803 43.86H202.223C202.183 43.74 202.163 43.58 202.163 43.38V42.96H201.563V41.76H202.403V40.56H202.823V40.26H202.643V39.36H202.403V38.46H202.463V37.86H202.163V37.26H202.403V36.06H202.283V35.46H202.043V34.56H202.283V33.66H202.403V32.46H202.703V31.86H202.403V30.96H202.763V30.06H202.523V29.16H201.503V28.56H201.863V27.66H199.883V26.76H202.883V25.86H202.583V25.26H202.403V24.66H203.543V24.36H201.803V23.16H204.083V22.56H206.123V21.36H200.483V20.76H205.463V19.56H203.663V18.66H204.743V17.46H202.823V17.16H202.403V16.56H202.043V15.66H202.463V15.42C202.463 14.98 202.563 14.66 202.763 14.46H202.823C203.143 14.02 203.583 13.8 204.143 13.8H214.883C215.443 13.8 215.883 14.02 216.203 14.46H216.083C216.323 14.7 216.443 15.02 216.443 15.42V15.66H216.023V16.56H216.383V17.16H216.803V17.46H218.723V18.66H217.643V19.56H219.443V20.76H214.463V21.36ZM261.638 36.36H256.118V36.96H260.018V37.26H259.298V37.86H257.798V39.36H258.338V39.96H260.018V40.56H255.998V41.76H260.258V42.66H257.738V43.26H258.518V43.56H257.798C257.718 43.8 257.638 44 257.558 44.16C257.518 44.24 257.438 44.34 257.318 44.46H257.378C257.218 44.62 257.098 44.72 257.018 44.76H256.898C256.698 44.92 256.418 45 256.058 45H244.298C243.978 45 243.678 44.92 243.398 44.76H243.578C243.498 44.72 243.378 44.62 243.218 44.46H243.158C243.038 44.34 242.958 44.24 242.918 44.16H242.978C242.858 43.96 242.798 43.76 242.798 43.56H243.518V43.26H242.738V42.66H245.258V41.76H240.998V40.56H245.018V39.96H243.338V39.36H242.798V37.86H244.298V37.26H245.018V36.96H241.118V36.36H246.638V35.76H242.678V34.86H244.538V34.26H242.138V34.86H240.758V35.76H239.738V36.36H240.338V36.96H238.178V37.26H236.918V37.86H236.798V38.46H236.678V39.36H234.518V39.96H231.998V40.56H235.898V41.76H231.278V42.66H232.718V43.26H235.958V43.56H236.798L236.618 44.16H236.558C236.518 44.2 236.478 44.24 236.438 44.28C236.398 44.32 236.358 44.38 236.318 44.46H236.378C236.218 44.62 236.098 44.72 236.018 44.76H237.338C237.058 44.92 236.758 45 236.438 45H224.738C224.378 45 224.098 44.92 223.898 44.76H222.578C222.498 44.72 222.378 44.62 222.218 44.46C222.098 44.34 222.018 44.24 221.978 44.16H222.038C221.998 44.08 221.958 44 221.918 43.92C221.878 43.8 221.858 43.68 221.858 43.56H221.018V43.26H217.778V42.66H216.338V41.76H220.958V40.56H217.058V39.96H219.578V39.36H221.738V38.46H221.858V37.86H221.978V37.26H223.238V36.96H225.398V36.36H224.798V35.76H225.818V34.86H227.198V34.26H219.818V33.96H220.658V33.66H222.038V33.36H220.838V33.06H221.918V32.16H221.858V31.26H220.838V30.96H221.678V30.36H222.578V30.06H221.078V28.86H219.458V28.26H220.838V27.06H222.518V26.76H221.558V26.46H221.498V26.16H221.738V25.56H223.418V25.26H221.078V24.66H221.858V23.76H223.118V23.46H222.338V22.56H221.798V22.26H221.318V21.36H222.458V20.16H220.598V18.96H222.458V18.06H220.538V16.86H221.798V16.56H222.398V15.66H221.738V14.76H221.558V13.56H222.038V12.66H223.778V11.76H221.558V11.16H220.178V9.96H216.698V8.76H222.998V7.56H222.458V6.36H219.998V5.76H224.078V5.46H221.678V4.26H221.078V4.02C221.078 3.82 221.118 3.6 221.198 3.36H221.918C222.198 2.72 222.698 2.4 223.418 2.4H235.118C235.838 2.4 236.338 2.72 236.618 3.36H235.898C235.978 3.6 236.018 3.82 236.018 4.02V4.26H236.618V5.46H239.018V5.76H234.938V6.36H237.398V7.56H237.938V8.76H231.638V9.96H235.118V11.16H236.498V11.76H238.718V12.66H236.978V13.56H236.498V14.76H236.678V15.66H237.338V16.56H238.778C238.978 16.4 239.158 16.26 239.318 16.14C239.478 15.98 239.658 15.82 239.858 15.66H238.118C238.358 15.5 238.578 15.34 238.778 15.18C239.018 15.02 239.278 14.88 239.558 14.76C240.558 14.2 241.618 13.8 242.738 13.56H244.118C245.158 13.32 246.218 13.2 247.298 13.2C248.338 13.2 249.338 13.32 250.298 13.56H248.918C249.958 13.8 250.958 14.2 251.918 14.76C252.118 14.88 252.338 15.02 252.578 15.18C252.818 15.3 253.038 15.46 253.238 15.66H254.918C255.118 15.82 255.278 15.98 255.398 16.14C255.558 16.26 255.718 16.4 255.878 16.56H254.318C254.358 16.6 254.398 16.64 254.438 16.68C254.478 16.72 254.518 16.78 254.558 16.86H253.178C253.378 17.02 253.538 17.22 253.658 17.46C253.818 17.66 253.978 17.86 254.138 18.06H256.118L256.658 18.96H254.798L255.338 20.16H257.258C257.338 20.32 257.418 20.52 257.498 20.76C257.578 20.96 257.638 21.16 257.678 21.36H256.538C256.618 21.52 256.658 21.68 256.658 21.84C256.698 21.96 256.738 22.1 256.778 22.26H257.258C257.298 22.34 257.318 22.44 257.318 22.56H257.918L258.098 23.46H258.818C258.858 23.54 258.878 23.64 258.878 23.76H257.678L257.738 24.36H257.138V24.66H258.098C258.138 24.74 258.158 24.84 258.158 24.96C258.158 25.08 258.158 25.18 258.158 25.26H259.838V25.56H257.858V26.16H257.798C257.838 26.24 257.858 26.34 257.858 26.46H257.798V26.76H257.618V27.06H257.738V28.26H255.398V28.86H257.918V30.06H257.678V30.36H258.218V30.96H257.078V31.26H258.038V32.16H258.938V33.06H257.798V33.36H258.398V33.66H258.818V33.96H256.298V34.26H259.538V34.86H257.678V35.76H261.638V36.36ZM237.158 16.56H236.738V16.86H236.858C236.938 16.78 236.998 16.72 237.038 16.68C237.078 16.64 237.118 16.6 237.158 16.56ZM241.298 33.96H243.818V33.66H243.398V33.36H242.798V33.06H243.938V32.16H243.038V31.26H242.078V30.96H243.218V30.36H242.678V30.06H242.918V28.86H240.398V28.26H242.738V27.06H242.618V26.76H242.798C242.798 26.68 242.778 26.62 242.738 26.58C242.738 26.54 242.738 26.5 242.738 26.46H242.798C242.758 26.38 242.738 26.28 242.738 26.16H242.798L242.618 25.56H244.598C244.518 25.4 244.478 25.3 244.478 25.26H242.798C242.758 25.14 242.678 25.04 242.558 24.96C242.478 24.84 242.398 24.74 242.318 24.66H241.358C241.198 24.5 241.058 24.4 240.938 24.36H241.598C241.158 24.08 240.578 23.94 239.858 23.94C239.138 23.94 238.578 24.08 238.178 24.36H238.118C238.038 24.4 237.918 24.5 237.758 24.66H236.978C236.898 24.74 236.818 24.84 236.738 24.96C236.658 25.04 236.578 25.14 236.498 25.26H238.778C238.698 25.42 238.658 25.52 238.658 25.56H236.978L236.798 26.16H236.498C236.498 26.28 236.478 26.38 236.438 26.46H236.558V26.76H237.458V27.06H235.778V28.26H234.398V28.86H236.018V30.06H237.518V30.36H236.618V30.96H235.778V31.26H236.798V32.16H236.858V33.06H235.778V33.36H236.978V33.66H235.598V33.96H234.758V34.26H241.298V33.96ZM275.365 10.56H280.945L280.765 11.16H278.365L278.125 11.76H274.345L273.985 12.66H273.145L273.025 12.96H277.285L277.045 13.56H271.345L270.865 14.76H273.265L273.085 15.36H273.625L273.505 15.66H273.805L273.625 16.26H272.065L271.705 17.16H272.545L272.185 18.06H272.125L271.765 18.96H272.965L272.785 19.26H272.425C272.265 19.5 272.065 19.74 271.825 19.98C271.585 20.18 271.285 20.34 270.925 20.46C270.605 20.54 270.325 20.58 270.085 20.58H264.025C263.865 20.58 263.665 20.54 263.425 20.46H263.485C262.965 20.26 262.705 19.86 262.705 19.26H263.125V19.14L263.185 18.96H261.925L262.105 18.06H262.165L262.285 17.16H261.445L261.565 16.26H263.125L263.245 15.66H262.945V15.36H262.405L262.465 14.76H260.065L260.245 13.56H265.945L266.065 12.96H261.745L261.805 12.66H262.705L262.825 11.76H266.605L266.665 11.16H269.065L269.125 10.56H263.545V10.26H264.505V9.96H262.825L262.945 8.76L263.065 7.86H262.945L263.065 6.96H263.305V6.66L263.485 5.46L263.605 4.86H263.305V4.74L263.425 4.26H263.605L263.725 3.96H263.425C263.505 3.72 263.625 3.52 263.785 3.36H263.665C263.905 3.08 264.185 2.86 264.505 2.7C264.825 2.5 265.225 2.4 265.705 2.4H275.305C275.945 2.4 276.365 2.72 276.565 3.36H276.625C276.665 3.44 276.685 3.56 276.685 3.72V3.96H276.985C276.985 4 276.965 4.04 276.925 4.08C276.925 4.08 276.925 4.1 276.925 4.14L276.865 4.26H276.685L276.505 4.86H276.745L276.025 6.66H276.085L275.965 6.96H275.785L275.425 7.86H275.545L274.945 9.36H275.005L274.765 9.96H276.505L276.385 10.26H275.425L275.365 10.56ZM312.782 39.66H310.322C310.082 40.06 309.802 40.46 309.482 40.86H310.562C310.522 40.94 310.442 41.04 310.322 41.16H307.682C307.522 41.32 307.362 41.48 307.202 41.64C307.082 41.76 306.922 41.9 306.722 42.06H306.662C306.462 42.22 306.242 42.38 306.002 42.54C305.802 42.66 305.582 42.8 305.342 42.96H304.262C303.902 43.2 303.502 43.42 303.062 43.62C302.622 43.78 302.182 43.96 301.742 44.16H301.502C301.382 44.2 301.242 44.24 301.082 44.28C300.962 44.32 300.802 44.38 300.602 44.46H307.442C307.282 44.5 307.102 44.54 306.902 44.58C306.742 44.62 306.562 44.68 306.362 44.76H303.362C302.842 44.88 302.302 44.98 301.742 45.06C301.182 45.18 300.602 45.28 300.002 45.36H298.202C297.562 45.44 296.882 45.5 296.162 45.54C295.442 45.58 294.682 45.6 293.882 45.6C293.122 45.6 292.402 45.58 291.722 45.54C291.082 45.5 290.462 45.44 289.862 45.36H291.602C291.042 45.28 290.502 45.18 289.982 45.06C289.462 44.98 288.962 44.88 288.482 44.76H291.482L290.462 44.46H283.622C283.502 44.38 283.362 44.32 283.202 44.28C283.082 44.24 282.942 44.2 282.782 44.16H282.962C282.522 43.96 282.082 43.76 281.642 43.56C281.242 43.36 280.842 43.16 280.442 42.96H281.522C281.282 42.8 281.042 42.66 280.802 42.54C280.602 42.38 280.402 42.22 280.202 42.06H280.322C280.122 41.9 279.942 41.76 279.782 41.64C279.622 41.48 279.462 41.32 279.302 41.16H281.882C281.842 41.08 281.802 41.02 281.762 40.98C281.722 40.94 281.682 40.9 281.642 40.86H280.502C280.342 40.66 280.182 40.46 280.022 40.26C279.862 40.06 279.702 39.86 279.542 39.66H282.062C281.902 39.46 281.782 39.26 281.702 39.06C281.622 38.82 281.542 38.62 281.462 38.46H280.322C280.242 38.3 280.202 38.2 280.202 38.16H278.342L278.162 37.56H276.782C276.742 37.44 276.722 37.26 276.722 37.02C276.722 36.7 276.742 36.48 276.782 36.36H277.202C277.402 35.88 277.722 35.58 278.162 35.46H278.042C278.122 35.42 278.262 35.4 278.462 35.4H289.142C289.182 35.4 289.222 35.42 289.262 35.46C289.342 35.46 289.402 35.46 289.442 35.46H289.562C289.882 35.54 290.162 35.66 290.402 35.82C290.682 35.98 290.962 36.16 291.242 36.36H290.882C291.202 36.56 291.542 36.76 291.902 36.96C292.262 37.12 292.682 37.2 293.162 37.2C293.482 37.2 293.782 37.14 294.062 37.02C294.342 36.86 294.502 36.64 294.542 36.36H294.722V36.3C294.722 35.94 294.642 35.66 294.482 35.46C294.322 35.22 294.062 35.02 293.702 34.86H292.982C292.582 34.66 292.042 34.46 291.362 34.26C290.722 34.06 289.822 33.86 288.662 33.66H289.202L288.242 33.48C287.922 33.4 287.602 33.34 287.282 33.3C286.962 33.22 286.642 33.14 286.322 33.06H286.562L285.542 32.76H285.662C285.142 32.6 284.642 32.42 284.162 32.22C283.682 32.02 283.222 31.8 282.782 31.56H283.022L281.582 30.66H281.462C281.182 30.46 280.922 30.26 280.682 30.06C280.482 29.86 280.282 29.66 280.082 29.46H278.822C278.782 29.38 278.742 29.32 278.702 29.28C278.662 29.24 278.622 29.2 278.582 29.16H279.122C279.002 29.04 278.922 28.94 278.882 28.86H277.202L276.542 27.96H279.122L278.762 27.36H277.922C277.722 26.92 277.562 26.52 277.442 26.16H277.802C277.802 26.08 277.782 26.02 277.742 25.98C277.742 25.94 277.742 25.9 277.742 25.86H280.562C280.562 25.7 280.522 25.5 280.442 25.26H275.162C275.162 25.1 275.162 24.96 275.162 24.84C275.122 24.68 275.082 24.52 275.042 24.36H275.102L275.042 23.76H279.062C279.022 23.68 279.002 23.58 279.002 23.46C279.002 23.3 279.002 23.16 279.002 23.04C279.042 22.88 279.062 22.72 279.062 22.56H276.242L276.302 21.96H279.002L279.182 21.36H277.982C278.022 21.28 278.062 21.18 278.102 21.06C278.142 20.94 278.182 20.84 278.222 20.76H277.742C277.822 20.6 277.902 20.46 277.982 20.34C278.062 20.18 278.122 20.02 278.162 19.86H278.402L278.762 19.26H278.702C278.782 19.1 278.882 18.96 279.002 18.84C279.122 18.68 279.242 18.52 279.362 18.36C279.482 18.2 279.602 18.06 279.722 17.94C279.842 17.78 279.982 17.62 280.142 17.46H280.022L280.322 17.16H280.262C280.302 17.08 280.342 17.02 280.382 16.98C280.462 16.94 280.522 16.9 280.562 16.86H280.682L281.402 16.26C281.482 16.18 281.542 16.12 281.582 16.08C281.662 16.04 281.742 16 281.822 15.96H280.682C281.362 15.52 282.102 15.12 282.902 14.76H284.762C284.882 14.68 285.002 14.62 285.122 14.58C285.242 14.54 285.382 14.5 285.542 14.46H281.462C281.622 14.38 281.762 14.32 281.882 14.28C282.042 14.24 282.202 14.2 282.362 14.16H284.942C285.942 13.84 287.002 13.6 288.122 13.44C289.282 13.28 290.502 13.2 291.782 13.2C293.102 13.2 294.342 13.28 295.502 13.44C296.662 13.6 297.742 13.84 298.742 14.16H296.162C296.322 14.2 296.462 14.24 296.582 14.28C296.742 14.32 296.902 14.38 297.062 14.46H301.082L301.922 14.76H300.062C300.502 14.92 300.922 15.12 301.322 15.36C301.722 15.56 302.102 15.76 302.462 15.96H303.602L304.082 16.26H304.142C304.302 16.34 304.442 16.44 304.562 16.56C304.722 16.68 304.862 16.78 304.982 16.86H304.922L305.282 17.16H305.342L305.702 17.46H305.822C306.182 17.74 306.482 18.04 306.722 18.36C307.042 18.64 307.282 18.94 307.442 19.26H307.502L307.862 19.86H307.562C307.642 20.02 307.722 20.18 307.802 20.34C307.882 20.46 307.942 20.6 307.982 20.76H308.402L308.582 21.36H309.722L309.782 21.78V21.96H310.802C310.802 22.12 310.762 22.32 310.682 22.56C310.402 23.12 310.002 23.4 309.482 23.4H299.402C299.002 23.4 298.622 23.32 298.262 23.16C297.942 22.96 297.622 22.76 297.302 22.56C297.022 22.36 296.702 22.16 296.342 21.96H295.322C294.922 21.72 294.482 21.6 294.002 21.6C293.602 21.6 293.282 21.72 293.042 21.96H290.402C290.202 22.16 290.102 22.36 290.102 22.56H292.922C292.922 22.76 292.962 22.96 293.042 23.16C293.122 23.36 293.302 23.56 293.582 23.76H289.622C289.822 23.84 290.042 23.94 290.282 24.06C290.522 24.18 290.822 24.28 291.182 24.36H291.122C291.602 24.52 292.202 24.66 292.922 24.78C293.682 24.9 294.562 25.04 295.562 25.2C295.642 25.2 295.702 25.22 295.742 25.26C295.822 25.26 295.882 25.26 295.922 25.26H301.202C301.682 25.34 302.142 25.44 302.582 25.56C303.062 25.64 303.502 25.74 303.902 25.86H301.082C301.242 25.9 301.382 25.94 301.502 25.98C301.662 26.02 301.822 26.08 301.982 26.16H301.622C302.142 26.32 302.602 26.5 303.002 26.7C303.442 26.9 303.862 27.12 304.262 27.36H305.162L306.122 27.96H303.542C303.742 28.12 303.942 28.28 304.142 28.44C304.342 28.56 304.522 28.7 304.682 28.86H306.362L306.662 29.16H306.122L306.422 29.46H307.622C308.062 29.9 308.382 30.3 308.582 30.66H308.702C308.822 30.82 308.922 30.98 309.002 31.14C309.082 31.26 309.162 31.4 309.242 31.56H309.002C309.082 31.76 309.162 31.96 309.242 32.16C309.362 32.36 309.442 32.56 309.482 32.76H309.302L309.422 33.06H309.182C309.222 33.14 309.242 33.24 309.242 33.36C309.242 33.48 309.262 33.58 309.302 33.66H308.762C308.882 34.06 308.942 34.46 308.942 34.86H309.722V35.28C309.722 35.44 309.702 35.62 309.662 35.82C309.662 35.98 309.662 36.16 309.662 36.36H309.482C309.442 36.56 309.402 36.76 309.362 36.96C309.362 37.16 309.322 37.36 309.242 37.56H310.622C310.622 37.76 310.562 37.96 310.442 38.16H312.362C312.282 38.32 312.242 38.42 312.242 38.46H313.382C313.302 38.66 313.202 38.86 313.082 39.06C313.002 39.26 312.902 39.46 312.782 39.66ZM365.785 39.06H360.565L359.965 39.96H364.885L364.345 40.56H360.265L359.965 40.86H360.505C360.025 41.34 359.545 41.74 359.065 42.06H360.025C359.745 42.26 359.425 42.46 359.065 42.66H358.765L358.225 42.96H358.345C358.265 43 358.165 43.04 358.045 43.08C357.925 43.12 357.825 43.18 357.745 43.26H357.565C357.165 43.42 356.745 43.58 356.305 43.74C355.865 43.9 355.405 44.04 354.925 44.16H355.045C354.525 44.28 354.005 44.4 353.485 44.52C352.965 44.6 352.425 44.68 351.865 44.76H352.045C351.405 44.84 350.725 44.9 350.005 44.94C349.325 44.98 348.605 45 347.845 45H327.325C326.965 45 326.685 44.92 326.485 44.76H326.245C326.045 44.64 325.865 44.44 325.705 44.16H325.585C325.465 43.92 325.405 43.66 325.405 43.38V43.26H325.585V42.96H325.465V42.66H325.765V42.06H324.805V40.86H324.265V40.56H328.345V39.96H323.365V39.06H328.585V37.86H324.265V37.56H324.205V36.96H327.385V36.36H325.165V35.76H327.145V34.86H325.405V33.96H326.485V33.66H325.585V31.86H325.165V31.26H325.465V30.36H325.105V29.46H324.085V28.86H322.825V28.26H326.005V27.96H321.745V27.66H325.765V27.36H324.685V27.06H325.345V26.46H324.925V25.56H324.985V24.66H325.225V24.36H325.405V23.76H326.845V22.56H327.805V21.66H325.585V20.46H325.165V19.86H324.445V18.96H325.405V17.76H323.845V17.46H325.525V17.16H327.565V16.56H328.465V16.26H323.905V15.36H325.585V14.46H325.345V13.86H325.405V13.26H325.225V12.36H325.105V12.06H326.125V11.76H324.205V10.86H324.865V10.56H325.105V9.06H325.405V8.76H322.045V8.46H323.545V7.56H326.905V6.66H321.865V6.36H323.485V5.76H323.905V4.56H323.785C323.785 4.24 323.885 3.94 324.085 3.66H326.245C326.565 3.22 326.985 3 327.505 3H347.425C348.745 3 349.965 3.06 351.085 3.18C352.245 3.3 353.325 3.46 354.325 3.66H352.225C352.745 3.78 353.245 3.92 353.725 4.08C354.245 4.2 354.705 4.36 355.105 4.56H355.225C355.665 4.72 356.065 4.9 356.425 5.1C356.785 5.3 357.145 5.52 357.505 5.76H357.085C357.245 5.84 357.385 5.94 357.505 6.06C357.665 6.18 357.805 6.28 357.925 6.36H356.305L356.665 6.66H361.705C361.865 6.82 362.005 6.98 362.125 7.14C362.285 7.26 362.425 7.4 362.545 7.56H359.185C359.305 7.72 359.425 7.88 359.545 8.04C359.665 8.16 359.765 8.3 359.845 8.46H358.345L358.525 8.76H361.885L362.065 9.06H361.765C361.885 9.26 361.985 9.46 362.065 9.66C362.145 9.82 362.225 9.98 362.305 10.14C362.385 10.26 362.445 10.4 362.485 10.56H362.185L362.305 10.86H361.645C361.725 11.02 361.785 11.18 361.825 11.34C361.865 11.46 361.905 11.6 361.945 11.76H363.865C363.865 11.8 363.865 11.84 363.865 11.88C363.905 11.92 363.925 11.98 363.925 12.06H362.905C362.945 12.14 362.965 12.24 362.965 12.36H363.085L363.265 13.26H363.445C363.445 13.34 363.445 13.44 363.445 13.56C363.445 13.68 363.465 13.78 363.505 13.86C363.505 13.94 363.505 14.04 363.505 14.16C363.505 14.28 363.525 14.38 363.565 14.46H363.505C363.545 14.62 363.565 14.78 363.565 14.94C363.565 15.06 363.565 15.2 363.565 15.36H363.025V15.6C363.025 15.72 363.005 15.84 362.965 15.96C362.965 16.04 362.965 16.14 362.965 16.26H364.045C364.045 16.3 364.025 16.34 363.985 16.38C363.985 16.42 363.985 16.48 363.985 16.56H363.325L363.265 17.16H364.165C364.165 17.28 364.145 17.38 364.105 17.46H363.325C363.285 17.54 363.265 17.64 363.265 17.76C363.145 18.12 362.985 18.52 362.785 18.96H361.825L361.345 19.86H362.065C361.985 19.94 361.905 20.04 361.825 20.16C361.785 20.28 361.725 20.38 361.645 20.46H362.005C361.685 20.94 361.325 21.34 360.925 21.66H363.205C362.805 22.06 362.425 22.36 362.065 22.56H361.105C360.825 22.8 360.525 22.98 360.205 23.1C360.405 23.18 360.605 23.28 360.805 23.4C361.045 23.52 361.265 23.64 361.465 23.76H360.025C360.265 23.92 360.545 24.12 360.865 24.36H360.685L361.045 24.66H360.805L361.705 25.56H361.645C361.765 25.72 361.885 25.88 362.005 26.04C362.125 26.16 362.225 26.3 362.305 26.46H362.725L363.085 27.06H362.425L362.605 27.36H363.685C363.685 27.4 363.725 27.5 363.805 27.66H359.785L359.965 27.96H364.225C364.225 28 364.265 28.1 364.345 28.26H361.165C361.245 28.34 361.285 28.44 361.285 28.56C361.325 28.68 361.365 28.78 361.405 28.86H363.625L363.805 29.46H364.105L364.285 30.36H364.225C364.265 30.52 364.285 30.68 364.285 30.84C364.325 30.96 364.345 31.1 364.345 31.26H364.285V31.86H364.225V32.46H364.465C364.465 32.66 364.445 32.86 364.405 33.06C364.405 33.26 364.385 33.46 364.345 33.66H366.085C366.085 33.7 366.065 33.74 366.025 33.78C366.025 33.82 366.025 33.88 366.025 33.96H364.345C364.305 34.12 364.285 34.28 364.285 34.44C364.285 34.56 364.265 34.7 364.225 34.86H365.905L365.725 35.76H363.745L363.565 36.36H365.845L365.605 36.96H362.425C362.385 37.04 362.345 37.14 362.305 37.26C362.305 37.38 362.265 37.48 362.185 37.56H362.245C362.245 37.6 362.205 37.7 362.125 37.86H366.445C366.285 38.26 366.065 38.66 365.785 39.06ZM338.845 17.46V17.76H340.405V18.78H345.445C346.365 18.78 347.025 18.44 347.425 17.76L347.605 17.46H348.385L348.505 17.16H347.545L347.725 16.56H348.385V16.26H347.305C347.345 16.22 347.365 16.16 347.365 16.08C347.365 15.96 347.345 15.84 347.305 15.72C347.305 15.6 347.285 15.48 347.245 15.36H347.845C347.805 15.04 347.685 14.74 347.485 14.46C347.445 14.34 347.365 14.24 347.245 14.16C347.165 14.04 347.085 13.94 347.005 13.86C346.805 13.7 346.565 13.58 346.285 13.5C346.045 13.38 345.765 13.32 345.445 13.32H340.405V13.86H340.345V14.46H340.585V15.36H338.905V16.26H343.465V16.56H342.565V17.16H340.525V17.46H338.845ZM340.585 33.66H341.485V33.96H340.405V34.68H345.985C346.425 34.68 346.785 34.62 347.065 34.5C347.385 34.34 347.665 34.16 347.905 33.96H349.585C349.625 33.88 349.665 33.82 349.705 33.78C349.745 33.74 349.785 33.7 349.825 33.66H348.145C348.385 33.3 348.565 32.9 348.685 32.46H348.445C348.485 32.38 348.505 32.28 348.505 32.16C348.505 32.04 348.505 31.94 348.505 31.86H348.565V31.26H348.625C348.585 31.1 348.545 30.96 348.505 30.84C348.465 30.68 348.405 30.52 348.325 30.36H348.385C348.185 29.96 347.965 29.66 347.725 29.46H347.425C347.145 29.18 346.745 28.98 346.225 28.86H344.005C343.885 28.82 343.685 28.8 343.405 28.8H337.825V28.86H339.085V29.46H340.105V30.36H340.465V31.26H340.165V31.86H340.585V33.66ZM388.968 21.66H384.048V21.96H384.408V23.16H385.968V23.76H381.948V24.66H382.908V24.96H382.968V25.86H383.268V26.16H382.608V26.46H383.328V26.76H382.848V27.36H382.488V28.26H382.788V28.56H383.028V28.86H381.408V29.46H380.748V29.76H380.208V30.66H381.588V30.96H380.568V31.56H383.628V32.76H380.808V33.96H383.328V35.16H382.908V35.46H383.508V36.66H381.408V37.26H385.488V38.46H381.948V38.76H383.568V39.66H382.788V40.86H382.548V42.06H382.848V42.96H382.188V43.38C382.188 43.58 382.168 43.74 382.128 43.86H383.748C383.588 44.3 383.348 44.6 383.028 44.76H381.048C380.848 44.92 380.568 45 380.208 45H369.468C369.108 45 368.828 44.92 368.628 44.76H370.608C370.288 44.6 370.048 44.3 369.888 43.86H368.268C368.228 43.74 368.208 43.58 368.208 43.38V42.96H368.868V42.06H368.568V40.86H368.808V39.66H369.588V38.76H367.968V38.46H371.508V37.26H367.428V36.66H369.528V35.46H368.928V35.16H369.348V33.96H366.828V32.76H369.648V31.56H366.588V30.96H367.608V30.66H366.228V29.76H366.768V29.46H367.428V28.86H369.048V28.56H368.808V28.26H368.508V27.36H368.868V26.76H369.348V26.46H368.628V26.16H369.288V25.86H368.988V24.96H368.928V24.66H367.968V23.76H371.988V23.16H370.428V21.96H370.068V21.66H374.988V21.36H369.768V20.46H372.828V19.56H370.368V19.26H367.968V18.06H369.648V17.76H368.868V17.46H368.028V16.56H368.328V16.26H369.288V15.06H368.868V14.46H369.708V12.36H372.228V12.06H370.548V11.16H368.268V10.86H368.148V10.26H368.688V9.66H368.808V9.36H368.868V8.46H368.748V8.16H368.868V7.86H369.048V6.96H368.628V6.06H369.048V5.76H368.928V4.56H368.868V4.26H368.808V4.02C368.808 3.82 368.848 3.6 368.928 3.36H368.988C369.268 2.72 369.768 2.4 370.488 2.4H381.228C381.868 2.4 382.368 2.72 382.728 3.36H382.668C382.748 3.6 382.788 3.82 382.788 4.02V4.26H382.848V4.56H382.908V5.76H383.028V6.06H382.608V6.96H383.028V7.86H382.848V8.16H382.728V8.46H382.848V9.36H382.788V9.66H382.668V10.26H382.128V10.86H382.248V11.16H384.528V12.06H386.208V12.36H383.688V14.46H382.848V15.06H383.268V16.26H382.308V16.56H382.008V17.46H382.848V17.76H383.628V18.06H381.948V19.26H384.348V19.56H386.808V20.46H383.748V21.36H388.968V21.66ZM427.203 27.66C427.243 27.86 427.263 28.06 427.263 28.26C427.263 28.46 427.263 28.66 427.263 28.86H423.003V29.46H420.543V30.06H422.883V30.36H420.183V31.26H418.683V31.56H422.043C422.043 31.68 422.023 31.78 421.983 31.86H421.803V32.16H422.343V32.22C422.343 32.38 422.323 32.56 422.283 32.76C422.283 32.96 422.263 33.16 422.223 33.36H421.803L421.623 34.56H422.523C422.523 34.72 422.483 34.92 422.403 35.16H422.223C422.183 35.32 422.143 35.48 422.103 35.64C422.063 35.76 422.023 35.9 421.983 36.06H422.463C422.423 36.26 422.363 36.46 422.283 36.66C422.203 36.86 422.123 37.06 422.043 37.26H421.143L420.903 37.86H421.023C420.943 38.02 420.903 38.12 420.903 38.16H420.663C420.503 38.56 420.283 38.96 420.003 39.36H420.123C420.083 39.44 420.023 39.54 419.943 39.66C419.863 39.78 419.783 39.88 419.703 39.96H419.643L418.923 40.86C418.883 40.9 418.843 40.94 418.803 40.98C418.763 41.02 418.703 41.08 418.622 41.16H418.323C418.163 41.32 418.003 41.48 417.843 41.64C417.683 41.76 417.503 41.9 417.303 42.06H415.503L414.243 42.96H414.483C414.403 43 414.323 43.04 414.243 43.08C414.163 43.12 414.083 43.18 414.003 43.26H413.583C413.503 43.3 413.403 43.34 413.283 43.38C413.163 43.42 413.063 43.48 412.983 43.56H416.223C416.023 43.68 415.803 43.8 415.562 43.92C415.323 44 415.083 44.08 414.843 44.16H413.823C413.543 44.28 413.243 44.4 412.923 44.52C412.603 44.6 412.283 44.68 411.963 44.76H412.203C411.723 44.88 411.223 44.98 410.703 45.06C410.183 45.18 409.643 45.28 409.083 45.36H410.943C410.303 45.44 409.643 45.5 408.963 45.54C408.283 45.58 407.583 45.6 406.863 45.6C406.103 45.6 405.383 45.58 404.703 45.54C404.063 45.5 403.403 45.44 402.723 45.36H400.803C400.283 45.28 399.743 45.18 399.183 45.06C398.663 44.98 398.163 44.88 397.683 44.76H397.503C397.183 44.68 396.863 44.6 396.543 44.52C396.263 44.4 395.963 44.28 395.643 44.16H396.603C396.403 44.08 396.183 44 395.943 43.92C395.703 43.8 395.483 43.68 395.283 43.56H392.043L391.503 43.26H391.923L391.383 42.96H391.143C390.663 42.64 390.243 42.34 389.883 42.06H391.683C391.523 41.9 391.363 41.76 391.203 41.64C391.043 41.48 390.883 41.32 390.723 41.16H391.023C390.983 41.08 390.943 41.02 390.903 40.98C390.863 40.94 390.803 40.9 390.723 40.86L390.003 39.96H390.063L389.643 39.36H389.522C389.243 38.96 389.023 38.56 388.863 38.16H389.043C388.963 38 388.923 37.9 388.923 37.86H388.743L388.503 37.26H389.403C389.363 37.06 389.303 36.86 389.223 36.66C389.143 36.46 389.063 36.26 388.983 36.06H388.503C388.463 35.9 388.423 35.76 388.383 35.64C388.343 35.48 388.303 35.32 388.263 35.16H387.903L387.723 34.56H387.123L386.943 33.36H387.542C387.503 33.16 387.463 32.96 387.423 32.76C387.423 32.56 387.423 32.38 387.423 32.22V32.16H386.343V31.86H386.043C386.043 31.78 386.023 31.72 385.983 31.68C385.983 31.64 385.983 31.6 385.983 31.56H389.343C389.343 31.44 389.323 31.34 389.283 31.26H385.923V30.36H387.363V30.06H388.083V29.46H389.343V28.86H385.683C385.683 28.66 385.683 28.46 385.683 28.26C385.683 28.06 385.703 27.86 385.743 27.66H384.962V27.06H390.903C390.943 26.94 390.963 26.78 390.963 26.58V26.16H389.343C389.343 26 389.343 25.86 389.343 25.74C389.383 25.58 389.403 25.42 389.403 25.26H390.003L390.183 24.06H388.203C388.243 23.9 388.283 23.76 388.323 23.64C388.363 23.48 388.403 23.32 388.443 23.16H388.023C388.103 22.96 388.163 22.76 388.203 22.56C388.283 22.32 388.363 22.12 388.443 21.96H388.503C388.543 21.88 388.583 21.78 388.623 21.66C388.663 21.54 388.703 21.44 388.743 21.36H388.683C388.683 21.32 388.723 21.22 388.803 21.06H389.103C389.263 20.66 389.483 20.26 389.763 19.86H388.563L388.923 19.26H391.143C391.183 19.18 391.263 19.08 391.383 18.96H387.003C387.083 18.8 387.183 18.66 387.303 18.54C387.463 18.38 387.603 18.22 387.723 18.06H389.103C389.303 17.86 389.503 17.66 389.703 17.46C389.943 17.22 390.163 17.02 390.363 16.86H393.123C393.483 16.54 393.903 16.24 394.382 15.96H395.523C395.683 15.84 395.843 15.74 396.003 15.66C396.203 15.54 396.383 15.44 396.543 15.36H393.003C393.363 15.16 393.803 14.96 394.323 14.76H395.943C396.863 14.4 397.823 14.1 398.823 13.86H397.023C398.983 13.42 401.063 13.2 403.263 13.2C405.463 13.2 407.543 13.42 409.503 13.86H411.363C412.363 14.1 413.303 14.4 414.183 14.76H412.503C413.023 14.96 413.463 15.16 413.823 15.36H417.363C417.563 15.44 417.743 15.54 417.903 15.66C418.103 15.74 418.283 15.84 418.443 15.96H417.303L418.563 16.86H415.803C416.043 17.02 416.263 17.22 416.463 17.46C416.703 17.66 416.923 17.86 417.123 18.06H415.743C415.863 18.22 415.983 18.38 416.103 18.54C416.263 18.66 416.383 18.8 416.463 18.96H420.903L421.083 19.26H418.923L419.283 19.86H420.483C420.763 20.26 420.983 20.66 421.143 21.06H420.842C420.923 21.22 420.963 21.32 420.963 21.36H421.083L421.323 21.96H421.263C421.343 22.12 421.423 22.32 421.503 22.56C421.583 22.76 421.643 22.96 421.683 23.16H422.283L422.463 24.06H422.103C422.183 24.22 422.223 24.42 422.223 24.66C422.263 24.86 422.303 25.06 422.343 25.26H422.823C422.863 25.42 422.883 25.58 422.883 25.74C422.883 25.86 422.903 26 422.943 26.16H420.603V26.58C420.603 26.78 420.623 26.94 420.663 27.06H419.462V27.66H427.203ZM404.163 25.26C404.123 25.42 404.083 25.58 404.043 25.74C404.043 25.86 404.043 26 404.043 26.16H405.723C405.683 26.28 405.663 26.4 405.663 26.52C405.663 26.64 405.663 26.76 405.663 26.88V27.06H405.903V26.88C405.903 26.76 405.883 26.64 405.843 26.52C405.843 26.4 405.843 26.28 405.843 26.16H408.183C408.183 26 408.163 25.86 408.123 25.74C408.123 25.58 408.123 25.42 408.123 25.26H407.643C407.603 25.02 407.543 24.8 407.463 24.6C407.423 24.4 407.363 24.22 407.283 24.06H407.703C407.543 23.7 407.303 23.4 406.983 23.16H406.383C405.983 22.92 405.463 22.8 404.823 22.8C404.183 22.8 403.683 22.92 403.323 23.16H403.743C403.583 23.28 403.443 23.42 403.323 23.58C403.203 23.7 403.103 23.86 403.023 24.06H405.003C404.963 24.22 404.903 24.4 404.823 24.6C404.783 24.8 404.743 25.02 404.703 25.26H404.163ZM408.243 28.86H412.503V27.66H404.763C404.723 27.5 404.703 27.3 404.703 27.06H399.723C399.723 27.3 399.703 27.5 399.663 27.66H400.443V28.86H404.103V29.46H402.783V30.06H402.063V30.36H400.623C400.623 30.52 400.623 30.68 400.623 30.84C400.663 30.96 400.683 31.1 400.683 31.26H405.423V30.36H408.123V30.06H405.783V29.46H408.243V28.86ZM407.283 31.86V31.56H400.743V31.86H401.043V31.92C401.043 31.96 401.043 32 401.043 32.04C401.083 32.08 401.103 32.12 401.103 32.16H402.123C402.163 32.36 402.183 32.56 402.183 32.76C402.183 32.96 402.203 33.16 402.243 33.36H401.643C401.723 33.88 401.803 34.28 401.883 34.56H402.543C402.623 34.8 402.703 35 402.783 35.16H403.202C403.563 35.72 404.243 36 405.243 36C406.243 36 406.923 35.72 407.283 35.16H407.523C407.563 35.08 407.603 35 407.643 34.92C407.683 34.8 407.723 34.68 407.763 34.56H406.863C406.903 34.36 406.943 34.18 406.983 34.02C407.023 33.82 407.063 33.6 407.103 33.36H407.523C407.563 33.16 407.583 32.96 407.583 32.76C407.583 32.56 407.603 32.36 407.643 32.16H407.103V31.86H407.283ZM461.739 43.86H463.659V44.76H462.159V45.06H462.579C462.539 45.22 462.519 45.36 462.519 45.48C462.519 45.64 462.499 45.8 462.459 45.96H462.399V46.26H459.579C459.539 46.34 459.519 46.44 459.519 46.56C459.519 46.68 459.499 46.78 459.459 46.86H462.939C462.899 47.06 462.859 47.26 462.819 47.46C462.779 47.66 462.739 47.86 462.699 48.06H461.739C461.699 48.22 461.659 48.36 461.619 48.48C461.579 48.64 461.519 48.8 461.439 48.96H459.459L459.219 49.56H460.239L459.999 50.16H460.119C460.039 50.36 459.939 50.56 459.819 50.76H459.879L459.339 51.66C459.299 51.7 459.259 51.74 459.219 51.78C459.219 51.82 459.199 51.88 459.159 51.96C459.079 52.12 458.979 52.26 458.859 52.38C458.739 52.54 458.619 52.7 458.499 52.86H458.379L458.079 53.16H459.219L458.679 53.76H457.299C457.179 53.84 457.059 53.94 456.939 54.06C456.819 54.18 456.719 54.28 456.639 54.36H458.259C458.099 54.52 457.899 54.66 457.659 54.78C457.459 54.94 457.259 55.1 457.059 55.26H459.219C458.979 55.42 458.719 55.56 458.439 55.68C458.199 55.84 457.939 56 457.659 56.16H457.059C456.859 56.28 456.639 56.38 456.399 56.46C456.159 56.58 455.939 56.68 455.739 56.76H452.319C451.559 57.04 450.779 57.28 449.979 57.48C449.179 57.68 448.359 57.84 447.519 57.96H451.059C450.459 58.04 449.839 58.1 449.199 58.14C448.559 58.18 447.919 58.2 447.279 58.2C446.599 58.2 445.919 58.18 445.239 58.14C444.599 58.1 443.979 58.04 443.379 57.96H439.839C438.039 57.72 436.379 57.32 434.859 56.76H438.279C438.039 56.68 437.799 56.58 437.559 56.46C437.319 56.38 437.079 56.28 436.839 56.16H437.439C437.159 56 436.879 55.84 436.599 55.68C436.319 55.56 436.039 55.42 435.759 55.26H433.659C433.419 55.1 433.179 54.94 432.939 54.78C432.739 54.66 432.539 54.52 432.339 54.36H430.719C430.399 54.12 430.159 53.92 429.999 53.76H431.379C431.259 53.68 431.139 53.58 431.019 53.46C430.899 53.34 430.799 53.24 430.719 53.16H429.579C429.539 53.08 429.499 53.02 429.459 52.98C429.419 52.94 429.359 52.9 429.279 52.86H429.459C429.299 52.7 429.159 52.54 429.039 52.38C428.919 52.26 428.799 52.12 428.679 51.96H428.619C428.579 51.88 428.499 51.78 428.379 51.66H428.439C428.319 51.5 428.199 51.34 428.079 51.18C427.959 51.06 427.859 50.92 427.779 50.76L427.419 50.16H427.299C427.259 50.08 427.219 49.98 427.179 49.86C427.139 49.74 427.079 49.64 426.999 49.56H425.979L425.739 48.96H427.779C427.739 48.8 427.679 48.64 427.599 48.48C427.559 48.36 427.519 48.22 427.479 48.06H427.119C427.119 47.94 427.099 47.82 427.059 47.7C427.059 47.62 427.059 47.54 427.059 47.46C427.059 47.18 427.079 46.98 427.119 46.86H426.939C427.059 46.62 427.199 46.42 427.359 46.26H426.999C427.239 46.1 427.419 46 427.539 45.96H428.319C428.559 45.88 428.779 45.84 428.979 45.84H440.679C440.879 45.84 441.099 45.88 441.339 45.96H440.499C440.699 46 440.859 46.1 440.979 46.26H441.339C441.499 46.42 441.639 46.62 441.759 46.86H441.939L442.059 47.04C442.339 47.52 442.599 47.86 442.839 48.06H443.139C443.579 48.38 444.179 48.54 444.939 48.54C445.539 48.54 446.059 48.38 446.499 48.06H447.459C447.819 47.78 448.079 47.38 448.239 46.86H444.759C444.839 46.62 444.879 46.42 444.879 46.26H447.699C447.739 46.18 447.759 46.08 447.759 45.96H447.819C447.859 45.8 447.879 45.64 447.879 45.48C447.879 45.36 447.879 45.22 447.879 45.06H447.519V44.76H448.959V43.86H447.039V43.56H445.899V43.26H446.979V42.06H445.839V41.7L445.239 42.06H445.179C444.219 42.62 443.179 43.02 442.059 43.26H442.299C441.979 43.3 441.659 43.36 441.339 43.44C441.019 43.48 440.679 43.52 440.319 43.56H438.819C438.579 43.6 438.339 43.62 438.099 43.62C437.859 43.62 437.619 43.62 437.379 43.62C437.099 43.62 436.819 43.62 436.539 43.62C436.259 43.62 435.999 43.6 435.759 43.56H437.199C436.839 43.52 436.479 43.48 436.119 43.44C435.759 43.36 435.399 43.3 435.039 43.26H434.859C434.259 43.14 433.679 42.98 433.119 42.78C432.599 42.58 432.079 42.34 431.559 42.06H431.619C431.459 41.98 431.299 41.9 431.139 41.82C430.979 41.7 430.819 41.58 430.659 41.46H432.039C431.799 41.26 431.559 41.06 431.319 40.86C431.119 40.66 430.919 40.46 430.719 40.26H425.859L425.559 39.96H428.319C427.999 39.56 427.719 39.16 427.479 38.76H428.259C427.979 38.36 427.759 37.96 427.599 37.56H427.479C427.279 37.12 427.119 36.72 426.999 36.36H422.619C422.619 36.28 422.619 36.22 422.619 36.18C422.579 36.14 422.559 36.1 422.559 36.06H426.639L426.459 35.46H426.759C426.719 35.26 426.659 35.06 426.579 34.86C426.539 34.66 426.499 34.46 426.459 34.26H427.179L426.999 33.06H426.219L426.159 32.46H424.719C424.679 32.26 424.659 32.06 424.659 31.86C424.659 31.66 424.639 31.46 424.599 31.26H424.059C424.059 31.1 424.059 30.96 424.059 30.84C424.019 30.68 423.999 30.52 423.999 30.36H424.839V29.76H425.919C425.919 29.6 425.899 29.46 425.859 29.34C425.859 29.18 425.859 29.02 425.859 28.86H426.399V27.96H425.439C425.439 27.8 425.439 27.66 425.439 27.54C425.439 27.38 425.459 27.22 425.499 27.06H425.619V27C425.619 26.84 425.619 26.7 425.619 26.58C425.659 26.46 425.679 26.32 425.679 26.16H425.919C425.959 26 425.979 25.86 425.979 25.74C425.979 25.58 425.999 25.42 426.039 25.26C426.079 25.18 426.099 25.08 426.099 24.96C426.099 24.84 426.119 24.74 426.159 24.66H425.859V24.36H426.219C426.259 24.16 426.299 23.96 426.339 23.76C426.379 23.52 426.419 23.32 426.459 23.16H426.399C426.439 23 426.479 22.86 426.519 22.74C426.559 22.58 426.599 22.42 426.639 22.26H427.119C427.199 22.06 427.259 21.86 427.299 21.66C427.379 21.42 427.459 21.22 427.539 21.06H427.839L427.959 20.76H427.119C427.159 20.68 427.199 20.58 427.239 20.46C427.279 20.34 427.319 20.24 427.359 20.16L427.719 19.26C427.759 19.18 427.779 19.12 427.779 19.08C427.819 19.04 427.859 19 427.899 18.96L428.079 18.66C428.159 18.58 428.219 18.48 428.259 18.36C428.339 18.24 428.419 18.14 428.499 18.06C428.539 17.98 428.579 17.92 428.619 17.88C428.659 17.84 428.699 17.8 428.739 17.76H428.619L429.339 16.86C429.459 16.78 429.559 16.68 429.639 16.56C429.759 16.44 429.859 16.34 429.939 16.26H430.059C430.099 16.18 430.139 16.12 430.179 16.08C430.259 16.04 430.319 16 430.359 15.96H431.019C431.259 15.72 431.519 15.52 431.799 15.36H430.299C430.459 15.24 430.619 15.14 430.779 15.06C430.939 14.94 431.099 14.84 431.259 14.76H431.679C432.239 14.44 432.919 14.14 433.719 13.86H435.699C437.139 13.42 438.679 13.2 440.319 13.2C441.759 13.2 443.099 13.42 444.339 13.86H442.359C442.999 14.06 443.639 14.36 444.279 14.76H443.919C444.079 14.84 444.219 14.94 444.339 15.06C444.499 15.14 444.659 15.24 444.819 15.36H446.259C446.419 15.44 446.559 15.54 446.679 15.66C446.799 15.78 446.919 15.88 447.039 15.96H446.379L446.679 16.26H446.619L447.159 16.86C447.239 16.9 447.299 16.96 447.339 17.04C447.419 17.12 447.479 17.2 447.519 17.28V16.86H447.759V16.26H448.779V15.96H449.439V15.36H446.499C446.499 15.12 446.559 14.92 446.679 14.76H447.699C447.899 14.28 448.239 13.98 448.719 13.86H447.519C447.639 13.82 447.799 13.8 447.999 13.8H458.499C458.699 13.8 458.839 13.82 458.919 13.86H460.119C460.599 13.98 460.939 14.28 461.139 14.76H460.119C460.199 15 460.239 15.2 460.239 15.36H463.179V15.96H462.519V16.26H461.499V16.86H461.259V17.76H461.319V18.66H461.259V20.16H461.319V20.76H462.159V21.06H461.799V22.26H461.259L461.319 23.16V24.66H461.139V25.26H460.959V26.16H461.319V27.06H462.039V27.96H460.779V28.86H461.199V29.76H461.319V30.36H459.339L459.399 31.26H459.639V32.46H460.959V33.06H462.039V34.26H461.259V35.46H461.019V36.06H456.879V36.36H461.259V37.56H461.379V38.76H460.539L460.599 39.96H457.839V40.26H462.699V41.46H460.539V42.06H461.679V43.26H460.599V43.56H461.739V43.86ZM441.519 32.46C441.799 32.74 442.159 32.94 442.599 33.06H443.319C443.479 33.1 443.639 33.14 443.799 33.18C443.999 33.18 444.179 33.18 444.339 33.18C444.539 33.18 444.719 33.18 444.879 33.18C445.079 33.14 445.259 33.1 445.419 33.06H444.339C444.779 32.94 445.139 32.74 445.419 32.46H444.099C444.419 32.14 444.639 31.74 444.759 31.26H444.519L444.699 30.36H446.619C446.619 30.28 446.639 30.22 446.679 30.18V29.76H446.559V28.86H446.199V27.96H447.399V27.06H446.619V26.94C446.619 26.78 446.599 26.64 446.559 26.52C446.559 26.4 446.539 26.28 446.499 26.16H446.199C446.159 25.84 446.059 25.54 445.899 25.26H446.019C445.899 25.02 445.759 24.82 445.599 24.66H445.779C445.619 24.5 445.499 24.4 445.419 24.36C445.019 24.08 444.439 23.94 443.679 23.94C442.919 23.94 442.339 24.08 441.939 24.36H441.579C441.499 24.4 441.379 24.5 441.219 24.66H441.519C441.359 24.82 441.219 25.02 441.099 25.26H441.039C440.999 25.38 440.959 25.52 440.919 25.68C440.879 25.8 440.819 25.96 440.739 26.16H440.499C440.459 26.32 440.419 26.48 440.379 26.64C440.379 26.76 440.379 26.9 440.379 27.06H440.199V27.42C440.159 27.54 440.139 27.72 440.139 27.96H441.099V28.86H440.559C440.559 29.02 440.559 29.18 440.559 29.34C440.599 29.46 440.619 29.58 440.619 29.7V29.76H439.539L439.599 30.36H438.759L438.939 31.26H439.479C439.599 31.74 439.819 32.14 440.139 32.46H441.519ZM447.459 41.46H447.999V41.04L447.459 41.46Z" fill="black"/>
</svg>
